<?xml version="1.0" encoding="UTF-8" standalone="no"?>
<!-- Created with Inkscape (http://www.inkscape.org/) -->

<svg
   width="100mm"
   height="99.999992mm"
   viewBox="0 0 100 99.999992"
   version="1.1"
   id="svg5"
   xmlns="http://www.w3.org/2000/svg"
   xmlns:svg="http://www.w3.org/2000/svg">
  <defs
     id="defs2" />
  <g
     id="layer1"
     transform="translate(-47.240815,-37.118262)">
    <rect
       style="fill:#61cbf5;fill-opacity:1;stroke-width:0.264583"
       id="rect111"
       width="100"
       height="100"
       x="47.240814"
       y="37.118259"
       rx="0"
       ry="10.746041" />
  </g>
  <g
     id="layer2"
     transform="translate(-47.240815,-37.118262)">
    <g
       id="g2555"
       transform="translate(31.044284,16.406141)">
      <path
         id="path951"
         style="fill:#ffffff;fill-opacity:1;stroke:#e7e7e7;stroke-width:1.465;stroke-dasharray:none;stroke-opacity:1"
         d="m 67.711683,39.122031 a 19.800873,13.930108 0 0 0 -19.800859,13.930416 19.800873,13.930108 0 0 0 0.146761,1.624707 16.218611,11.243785 0 0 0 -1.241268,-0.03359 16.218611,11.243785 0 0 0 -16.218648,11.243758 16.218611,11.243785 0 0 0 14.794963,11.195699 21.591631,14.527401 0 0 0 20.885547,10.878918 21.591631,14.527401 0 0 0 10.930598,-2.009692 21.591631,14.527401 0 0 0 2.995166,0.14211 A 21.591631,14.527401 0 0 0 101.79539,71.567079 21.591631,14.527401 0 0 0 86.392196,57.649583 19.800873,13.930108 0 0 0 87.512541,53.052447 19.800873,13.930108 0 0 0 67.711683,39.122031 Z" />
      <rect
         style="fill:#ffffff;fill-opacity:1;stroke:#e7e7e7;stroke-width:1.465;stroke-dasharray:none;stroke-opacity:1"
         id="rect2411"
         width="1.9898552"
         height="7.0646033"
         x="43.684746"
         y="83.496445"
         ry="0.99492759" />
      <rect
         style="fill:#ffffff;fill-opacity:1;stroke:#e7e7e7;stroke-width:1.465;stroke-dasharray:none;stroke-opacity:1"
         id="rect2413"
         width="2.1889529"
         height="9.154007"
         x="50.948444"
         y="89.565933"
         ry="0.99492759" />
      <rect
         style="fill:#ffffff;fill-opacity:1;stroke:#e7e7e7;stroke-width:1.465;stroke-dasharray:none;stroke-opacity:1"
         id="rect2415"
         width="2.2885017"
         height="9.750926"
         x="64.97773"
         y="91.0588"
         ry="0.99492759" />
      <rect
         style="fill:#ffffff;fill-opacity:1;stroke:#e7e7e7;stroke-width:1.465;stroke-dasharray:none;stroke-opacity:1"
         id="rect2415-2"
         width="2.2885017"
         height="9.750926"
         x="37.503174"
         y="78.525925"
         ry="0.99492759" />
      <rect
         style="fill:#ffffff;fill-opacity:1;stroke:#e7e7e7;stroke-width:1.465;stroke-dasharray:none;stroke-opacity:1"
         id="rect2415-8"
         width="2.2885017"
         height="9.750926"
         x="93.04734"
         y="86.221123"
         ry="0.99492759" />
      <rect
         style="fill:#ffffff;fill-opacity:1;stroke:#e7e7e7;stroke-width:1.465;stroke-dasharray:none;stroke-opacity:1"
         id="rect2417"
         width="2.0897782"
         height="7.2633262"
         x="57.515308"
         y="95.038879"
         ry="0.99492759" />
      <rect
         style="fill:#ffffff;fill-opacity:1;stroke:#e7e7e7;stroke-width:1.465;stroke-dasharray:none;stroke-opacity:1"
         id="rect2417-5"
         width="2.0897782"
         height="7.2633262"
         x="77.6661"
         y="90.110832"
         ry="0.99492759" />
      <rect
         style="fill:#ffffff;fill-opacity:1;stroke:#e7e7e7;stroke-width:1.465;stroke-dasharray:none;stroke-opacity:1"
         id="rect2417-3"
         width="2.0897782"
         height="7.2633262"
         x="85.63076"
         y="89.230614"
         ry="0.99492759" />
      <rect
         style="fill:#ffffff;fill-opacity:1;stroke:#e7e7e7;stroke-width:1.465;stroke-dasharray:none;stroke-opacity:1"
         id="rect2419"
         width="1.8903062"
         height="4.4774547"
         x="70.948418"
         y="91.953979"
         ry="0.94515312" />
    </g>
  </g>
</svg>
